%TF.GenerationSoftware,Altium Limited,Altium Designer,25.8.1 (18)*%
G04 Layer_Physical_Order=1*
G04 Layer_Color=255*
%FSLAX45Y45*%
%MOMM*%
%TF.SameCoordinates,BF877837-746F-4D67-876E-14822A395A72*%
%TF.FilePolarity,Positive*%
%TF.FileFunction,Copper,L1,Top,Signal*%
%TF.Part,Single*%
G01*
G75*
%TA.AperFunction,Conductor*%
%ADD10C,0.30000*%
%TA.AperFunction,SMDPad,CuDef*%
%ADD11R,1.70000X0.60000*%
%ADD12R,2.70000X1.00000*%
%TA.AperFunction,ConnectorPad*%
%ADD13R,1.70000X0.60000*%
%ADD14R,2.70000X1.00000*%
%TA.AperFunction,SMDPad,CuDef*%
%ADD15R,1.45000X1.25000*%
%ADD16R,1.00000X0.66000*%
%TA.AperFunction,Conductor*%
%ADD17C,0.50000*%
%TA.AperFunction,ViaPad*%
%ADD18C,0.30000*%
%ADD19C,0.50000*%
D10*
X1000000Y100000D02*
G03*
X987500Y112500I-12500J0D01*
G01*
X-226573Y-96173D02*
Y-51439D01*
X-193134Y-18000D01*
X-148000D02*
X-130000Y-0D01*
X-193134Y-18000D02*
X-148000D01*
X822500Y112500D02*
X987500D01*
X350000Y-250000D02*
Y-65000D01*
X-985246Y-12500D02*
X-822500D01*
X-350000Y-250000D02*
Y-82500D01*
D11*
X-822500Y-12500D02*
D03*
Y112500D02*
D03*
D12*
X-1142500Y-197500D02*
D03*
Y297500D02*
D03*
D13*
X822500Y112500D02*
D03*
Y-12500D02*
D03*
D14*
X1142500Y297500D02*
D03*
Y-197500D02*
D03*
D15*
X-350000Y82500D02*
D03*
Y-82500D02*
D03*
X350000Y100000D02*
D03*
Y-65000D02*
D03*
D16*
X130000Y95000D02*
D03*
Y-95000D02*
D03*
X-130000D02*
D03*
Y-0D02*
D03*
Y95000D02*
D03*
D17*
X450000Y100000D02*
X562500Y-12500D01*
X822500D01*
X-822500Y112500D02*
X-380000D01*
X-350000Y82500D01*
X-130000Y-95000D02*
X-45000D01*
X0Y-50000D01*
Y50000D01*
X-45000Y95000D02*
X0Y50000D01*
X-130000Y95000D02*
X-45000D01*
X-337500D02*
X-130000D01*
X-350000Y82500D02*
X-337500Y95000D01*
X350000Y100000D02*
X450000D01*
X345000Y95000D02*
X350000Y100000D01*
X130000Y95000D02*
X345000D01*
D18*
X-226573Y-96173D02*
D03*
D19*
X1000000Y100000D02*
D03*
X350000Y-250000D02*
D03*
X-350000D02*
D03*
X-985246Y-12500D02*
D03*
%TF.MD5,8c3b2dcd52dfa5af09c1f918f051abfe*%
M02*
