%TF.GenerationSoftware,Altium Limited,Altium Designer,25.8.1 (18)*%
G04 Layer_Color=65535*
%FSLAX45Y45*%
%MOMM*%
%TF.SameCoordinates,BF877837-746F-4D67-876E-14822A395A72*%
%TF.FilePolarity,Positive*%
%TF.FileFunction,Legend,Top*%
%TF.Part,Single*%
G01*
G75*
%TA.AperFunction,NonConductor*%
%ADD20C,0.25000*%
%ADD21C,0.20000*%
%ADD22C,0.25400*%
G36*
X148367Y-300000D02*
X-148367D01*
Y-227078D01*
X148367D01*
Y-300000D01*
D02*
G37*
%LPC*%
G36*
X-81231Y-237964D02*
X-87514D01*
Y-245134D01*
X-81231D01*
Y-237964D01*
D02*
G37*
G36*
X71253Y-237078D02*
X70514D01*
X68075Y-237225D01*
X65710Y-237595D01*
X63640Y-238038D01*
X62679Y-238334D01*
X61792Y-238630D01*
X60979Y-238925D01*
X60240Y-239221D01*
X59649Y-239443D01*
X59057Y-239664D01*
X58688Y-239886D01*
X58392Y-240034D01*
X58170Y-240108D01*
X58096Y-240182D01*
X56101Y-241438D01*
X54401Y-242917D01*
X52922Y-244395D01*
X51666Y-245873D01*
X50705Y-247204D01*
X50335Y-247795D01*
X50040Y-248312D01*
X49744Y-248682D01*
X49596Y-248978D01*
X49522Y-249199D01*
X49448Y-249273D01*
X48414Y-251565D01*
X47675Y-253930D01*
X47157Y-256295D01*
X46788Y-258439D01*
X46640Y-259400D01*
X46566Y-260360D01*
X46492Y-261100D01*
Y-261839D01*
X46418Y-262356D01*
Y-263169D01*
X46566Y-265830D01*
X46861Y-268417D01*
X47231Y-270708D01*
X47527Y-271817D01*
X47748Y-272778D01*
X47970Y-273665D01*
X48266Y-274478D01*
X48488Y-275217D01*
X48635Y-275808D01*
X48857Y-276252D01*
X48931Y-276621D01*
X49079Y-276843D01*
Y-276917D01*
X50188Y-279135D01*
X51444Y-281130D01*
X52775Y-282830D01*
X53440Y-283495D01*
X54031Y-284161D01*
X54622Y-284752D01*
X55214Y-285269D01*
X55731Y-285713D01*
X56175Y-286009D01*
X56470Y-286304D01*
X56766Y-286526D01*
X56914Y-286600D01*
X56988Y-286674D01*
X58022Y-287265D01*
X59057Y-287783D01*
X61275Y-288596D01*
X63492Y-289187D01*
X65636Y-289556D01*
X66670Y-289704D01*
X67557Y-289852D01*
X68370Y-289926D01*
X69036D01*
X69627Y-290000D01*
X70440D01*
X71918Y-289926D01*
X73323Y-289778D01*
X74653Y-289630D01*
X75910Y-289335D01*
X77092Y-288965D01*
X78201Y-288596D01*
X79236Y-288226D01*
X80197Y-287783D01*
X81010Y-287413D01*
X81823Y-287043D01*
X82414Y-286674D01*
X83005Y-286304D01*
X83375Y-286009D01*
X83745Y-285861D01*
X83892Y-285713D01*
X83966Y-285639D01*
X85001Y-284752D01*
X85888Y-283865D01*
X86701Y-282830D01*
X87514Y-281795D01*
X88845Y-279726D01*
X89879Y-277656D01*
X90323Y-276695D01*
X90692Y-275808D01*
X90988Y-274995D01*
X91210Y-274330D01*
X91432Y-273739D01*
X91579Y-273295D01*
X91653Y-273000D01*
Y-272926D01*
X84853Y-271226D01*
X84558Y-272408D01*
X84188Y-273517D01*
X83818Y-274552D01*
X83449Y-275513D01*
X83005Y-276400D01*
X82562Y-277139D01*
X82045Y-277878D01*
X81601Y-278543D01*
X81231Y-279135D01*
X80788Y-279578D01*
X80418Y-280022D01*
X80123Y-280391D01*
X79827Y-280613D01*
X79605Y-280835D01*
X79531Y-280909D01*
X79458Y-280982D01*
X78718Y-281574D01*
X77905Y-282017D01*
X76279Y-282830D01*
X74727Y-283422D01*
X73175Y-283791D01*
X71844Y-284087D01*
X71327Y-284161D01*
X70810D01*
X70366Y-284235D01*
X69849D01*
X68149Y-284161D01*
X66523Y-283865D01*
X65044Y-283495D01*
X63714Y-283052D01*
X62679Y-282609D01*
X62236Y-282387D01*
X61866Y-282239D01*
X61570Y-282091D01*
X61349Y-281943D01*
X61201Y-281869D01*
X61127D01*
X59723Y-280835D01*
X58540Y-279726D01*
X57505Y-278469D01*
X56692Y-277287D01*
X56027Y-276252D01*
X55583Y-275365D01*
X55436Y-274995D01*
X55288Y-274774D01*
X55214Y-274626D01*
Y-274552D01*
X54622Y-272630D01*
X54179Y-270708D01*
X53809Y-268787D01*
X53588Y-267013D01*
X53514Y-266200D01*
X53440Y-265460D01*
Y-264795D01*
X53366Y-264278D01*
Y-263834D01*
Y-263465D01*
Y-263243D01*
Y-263169D01*
X53440Y-261247D01*
X53588Y-259473D01*
X53883Y-257847D01*
X54179Y-256369D01*
X54401Y-255113D01*
X54549Y-254595D01*
X54696Y-254152D01*
X54770Y-253782D01*
X54844Y-253560D01*
X54918Y-253412D01*
Y-253339D01*
X55657Y-251639D01*
X56470Y-250086D01*
X57357Y-248830D01*
X58318Y-247721D01*
X59131Y-246834D01*
X59796Y-246243D01*
X60314Y-245873D01*
X60388Y-245725D01*
X60462D01*
X62014Y-244765D01*
X63714Y-244025D01*
X65340Y-243508D01*
X66892Y-243212D01*
X68297Y-242991D01*
X68888Y-242917D01*
X69405D01*
X69775Y-242843D01*
X70366D01*
X72214Y-242917D01*
X73914Y-243212D01*
X75318Y-243656D01*
X76575Y-244099D01*
X77536Y-244617D01*
X78275Y-244986D01*
X78718Y-245282D01*
X78866Y-245430D01*
X80049Y-246538D01*
X81158Y-247795D01*
X82045Y-249125D01*
X82784Y-250456D01*
X83375Y-251639D01*
X83597Y-252230D01*
X83745Y-252673D01*
X83892Y-253043D01*
X84040Y-253339D01*
X84114Y-253486D01*
Y-253560D01*
X90766Y-252008D01*
X90323Y-250678D01*
X89879Y-249495D01*
X89288Y-248386D01*
X88771Y-247278D01*
X88179Y-246317D01*
X87514Y-245430D01*
X86923Y-244543D01*
X86332Y-243804D01*
X85740Y-243212D01*
X85223Y-242621D01*
X84705Y-242104D01*
X84336Y-241734D01*
X83966Y-241365D01*
X83671Y-241143D01*
X83523Y-241069D01*
X83449Y-240995D01*
X82414Y-240330D01*
X81379Y-239664D01*
X80345Y-239147D01*
X79236Y-238704D01*
X77018Y-238038D01*
X75023Y-237595D01*
X74062Y-237373D01*
X73249Y-237299D01*
X72436Y-237225D01*
X71770Y-237151D01*
X71253Y-237078D01*
D02*
G37*
G36*
X-56027Y-251195D02*
X-56618D01*
X-58392Y-251269D01*
X-60018Y-251565D01*
X-61570Y-251934D01*
X-62827Y-252304D01*
X-63936Y-252747D01*
X-64379Y-252969D01*
X-64749Y-253117D01*
X-65044Y-253265D01*
X-65266Y-253412D01*
X-65414Y-253486D01*
X-65488D01*
X-66892Y-254373D01*
X-68149Y-255482D01*
X-69184Y-256591D01*
X-70070Y-257700D01*
X-70736Y-258660D01*
X-71179Y-259473D01*
X-71327Y-259769D01*
X-71475Y-259991D01*
X-71549Y-260139D01*
Y-260213D01*
X-72214Y-261987D01*
X-72657Y-263760D01*
X-73027Y-265534D01*
X-73249Y-267161D01*
X-73323Y-267900D01*
X-73397Y-268565D01*
Y-269156D01*
X-73471Y-269674D01*
Y-270708D01*
X-73397Y-272408D01*
X-73249Y-273961D01*
X-73027Y-275513D01*
X-72731Y-276843D01*
X-72436Y-278174D01*
X-71992Y-279282D01*
X-71623Y-280391D01*
X-71179Y-281352D01*
X-70736Y-282165D01*
X-70366Y-282904D01*
X-69923Y-283569D01*
X-69627Y-284087D01*
X-69331Y-284456D01*
X-69110Y-284752D01*
X-68962Y-284900D01*
X-68888Y-284974D01*
X-68001Y-285861D01*
X-67040Y-286600D01*
X-66079Y-287265D01*
X-65044Y-287856D01*
X-64010Y-288300D01*
X-63049Y-288743D01*
X-61053Y-289335D01*
X-60166Y-289483D01*
X-59353Y-289630D01*
X-58614Y-289778D01*
X-57949Y-289852D01*
X-57431Y-289926D01*
X-56692D01*
X-55583Y-289852D01*
X-54475Y-289778D01*
X-52553Y-289335D01*
X-50779Y-288817D01*
X-49301Y-288152D01*
X-48709Y-287783D01*
X-48118Y-287487D01*
X-47601Y-287191D01*
X-47231Y-286896D01*
X-46935Y-286674D01*
X-46714Y-286526D01*
X-46566Y-286452D01*
X-46492Y-286378D01*
X-45753Y-285639D01*
X-45088Y-284900D01*
X-43905Y-283274D01*
X-42944Y-281574D01*
X-42279Y-280022D01*
X-41761Y-278543D01*
X-41614Y-277952D01*
X-41466Y-277361D01*
X-41392Y-276917D01*
X-41318Y-276621D01*
X-41244Y-276400D01*
Y-276326D01*
X-47453Y-275513D01*
X-47748Y-277139D01*
X-48192Y-278617D01*
X-48783Y-279800D01*
X-49301Y-280761D01*
X-49818Y-281574D01*
X-50262Y-282091D01*
X-50483Y-282461D01*
X-50631Y-282535D01*
X-51592Y-283274D01*
X-52627Y-283791D01*
X-53662Y-284235D01*
X-54622Y-284456D01*
X-55436Y-284604D01*
X-56175Y-284678D01*
X-56618Y-284752D01*
X-56766D01*
X-57579Y-284678D01*
X-58392Y-284604D01*
X-59870Y-284235D01*
X-61127Y-283717D01*
X-62236Y-283052D01*
X-63049Y-282461D01*
X-63714Y-281943D01*
X-64083Y-281574D01*
X-64231Y-281426D01*
X-64749Y-280761D01*
X-65192Y-279948D01*
X-65857Y-278322D01*
X-66375Y-276474D01*
X-66670Y-274700D01*
X-66892Y-273074D01*
X-66966Y-272408D01*
Y-271743D01*
X-67040Y-271300D01*
Y-270856D01*
Y-270634D01*
Y-270561D01*
Y-269230D01*
X-66892Y-267974D01*
X-66744Y-266791D01*
X-66597Y-265756D01*
X-66375Y-264795D01*
X-66079Y-263908D01*
X-65857Y-263095D01*
X-65562Y-262356D01*
X-65266Y-261765D01*
X-65044Y-261247D01*
X-64749Y-260804D01*
X-64527Y-260434D01*
X-64379Y-260139D01*
X-64231Y-259917D01*
X-64083Y-259843D01*
Y-259769D01*
X-63492Y-259178D01*
X-62901Y-258660D01*
X-61644Y-257773D01*
X-60314Y-257182D01*
X-59131Y-256813D01*
X-58022Y-256517D01*
X-57209Y-256443D01*
X-56840Y-256369D01*
X-56396D01*
X-55288Y-256443D01*
X-54253Y-256665D01*
X-53366Y-256960D01*
X-52553Y-257330D01*
X-51962Y-257700D01*
X-51444Y-257995D01*
X-51148Y-258217D01*
X-51075Y-258291D01*
X-50335Y-259030D01*
X-49670Y-259917D01*
X-49079Y-260878D01*
X-48709Y-261765D01*
X-48340Y-262578D01*
X-48118Y-263243D01*
X-48044Y-263687D01*
X-47970Y-263760D01*
Y-263834D01*
X-41835Y-262873D01*
X-42353Y-260878D01*
X-43092Y-259178D01*
X-43905Y-257700D01*
X-44718Y-256517D01*
X-45531Y-255556D01*
X-46196Y-254891D01*
X-46640Y-254447D01*
X-46714Y-254299D01*
X-46788D01*
X-48340Y-253265D01*
X-49966Y-252526D01*
X-51592Y-251934D01*
X-53144Y-251565D01*
X-54549Y-251343D01*
X-55140Y-251269D01*
X-55583D01*
X-56027Y-251195D01*
D02*
G37*
G36*
X-98084Y-237964D02*
X-104588D01*
Y-278174D01*
X-131419Y-237964D01*
X-138367D01*
Y-289113D01*
X-131863D01*
Y-248978D01*
X-105106Y-289113D01*
X-98084D01*
Y-237964D01*
D02*
G37*
G36*
X119815D02*
X99710D01*
Y-289113D01*
X119223D01*
X120997Y-289039D01*
X122549Y-288965D01*
X123954Y-288817D01*
X125136Y-288669D01*
X126097Y-288522D01*
X126836Y-288448D01*
X127280Y-288300D01*
X127428D01*
X128684Y-287930D01*
X129719Y-287561D01*
X130680Y-287117D01*
X131493Y-286674D01*
X132158Y-286378D01*
X132676Y-286082D01*
X132971Y-285861D01*
X133045Y-285787D01*
X133858Y-285122D01*
X134597Y-284309D01*
X135189Y-283495D01*
X135780Y-282756D01*
X136224Y-282017D01*
X136519Y-281500D01*
X136741Y-281130D01*
X136815Y-280982D01*
X137332Y-279800D01*
X137702Y-278617D01*
X137997Y-277508D01*
X138145Y-276474D01*
X138293Y-275587D01*
X138367Y-274848D01*
Y-274256D01*
X138293Y-272630D01*
X137997Y-271152D01*
X137554Y-269895D01*
X137110Y-268713D01*
X136667Y-267826D01*
X136224Y-267161D01*
X135928Y-266717D01*
X135854Y-266569D01*
X134819Y-265387D01*
X133710Y-264426D01*
X132454Y-263613D01*
X131345Y-262947D01*
X130310Y-262430D01*
X129423Y-262134D01*
X129128Y-261987D01*
X128906Y-261913D01*
X128758Y-261839D01*
X128684D01*
X129941Y-261100D01*
X131050Y-260360D01*
X131936Y-259547D01*
X132676Y-258808D01*
X133267Y-258217D01*
X133710Y-257626D01*
X133932Y-257330D01*
X134006Y-257182D01*
X134597Y-256073D01*
X135041Y-255039D01*
X135410Y-254004D01*
X135632Y-253043D01*
X135780Y-252230D01*
X135854Y-251565D01*
Y-251195D01*
Y-251047D01*
X135780Y-249791D01*
X135558Y-248534D01*
X135189Y-247425D01*
X134819Y-246391D01*
X134450Y-245504D01*
X134080Y-244912D01*
X133858Y-244469D01*
X133784Y-244321D01*
X132971Y-243212D01*
X132084Y-242178D01*
X131123Y-241365D01*
X130236Y-240699D01*
X129497Y-240182D01*
X128832Y-239812D01*
X128389Y-239591D01*
X128315Y-239517D01*
X128241D01*
X126836Y-238999D01*
X125284Y-238630D01*
X123732Y-238334D01*
X122254Y-238186D01*
X120923Y-238038D01*
X120332D01*
X119815Y-237964D01*
D02*
G37*
G36*
X21731D02*
X739D01*
Y-289113D01*
X7539D01*
Y-268343D01*
X20622D01*
X22544Y-268269D01*
X24392Y-268121D01*
X26018Y-267900D01*
X27496Y-267604D01*
X28900Y-267308D01*
X30083Y-266939D01*
X31192Y-266495D01*
X32153Y-266052D01*
X32966Y-265682D01*
X33705Y-265239D01*
X34296Y-264869D01*
X34740Y-264500D01*
X35109Y-264278D01*
X35331Y-264056D01*
X35479Y-263908D01*
X35553Y-263834D01*
X36292Y-262947D01*
X36957Y-262060D01*
X37474Y-261173D01*
X37992Y-260213D01*
X38435Y-259252D01*
X38731Y-258365D01*
X39248Y-256665D01*
X39396Y-255852D01*
X39544Y-255113D01*
X39618Y-254447D01*
X39692Y-253930D01*
X39766Y-253412D01*
Y-252821D01*
X39692Y-251417D01*
X39544Y-250086D01*
X39248Y-248904D01*
X39027Y-247869D01*
X38731Y-246982D01*
X38435Y-246317D01*
X38287Y-245947D01*
X38214Y-245799D01*
X37622Y-244691D01*
X36883Y-243730D01*
X36218Y-242843D01*
X35553Y-242178D01*
X34961Y-241660D01*
X34518Y-241217D01*
X34222Y-240995D01*
X34074Y-240921D01*
X33113Y-240330D01*
X32005Y-239812D01*
X30970Y-239369D01*
X30009Y-238999D01*
X29122Y-238778D01*
X28457Y-238630D01*
X27939Y-238482D01*
X27792D01*
X26683Y-238334D01*
X25426Y-238186D01*
X24096Y-238112D01*
X22839Y-238038D01*
X21731Y-237964D01*
D02*
G37*
G36*
X-29566D02*
X-35848D01*
Y-289113D01*
X-29566D01*
Y-274404D01*
X-25205Y-270191D01*
X-12861Y-289113D01*
X-5100D01*
X-20770Y-265830D01*
X-6504Y-252008D01*
X-14709D01*
X-29566Y-267161D01*
Y-237964D01*
D02*
G37*
G36*
X-81231Y-252008D02*
X-87514D01*
Y-289113D01*
X-81231D01*
Y-252008D01*
D02*
G37*
%LPD*%
G36*
X120258Y-244173D02*
X121515Y-244247D01*
X122623Y-244395D01*
X123436Y-244543D01*
X123954Y-244617D01*
X124323Y-244765D01*
X124397D01*
X125210Y-245060D01*
X125949Y-245504D01*
X126541Y-245947D01*
X127058Y-246391D01*
X127428Y-246760D01*
X127723Y-247130D01*
X127871Y-247352D01*
X127945Y-247425D01*
X128389Y-248165D01*
X128684Y-248904D01*
X128906Y-249643D01*
X129054Y-250382D01*
X129128Y-250973D01*
X129202Y-251417D01*
Y-251712D01*
Y-251860D01*
X129128Y-252821D01*
X128980Y-253708D01*
X128758Y-254447D01*
X128536Y-255039D01*
X128315Y-255556D01*
X128093Y-255999D01*
X127945Y-256221D01*
X127871Y-256295D01*
X127354Y-256886D01*
X126689Y-257478D01*
X126023Y-257921D01*
X125432Y-258217D01*
X124841Y-258513D01*
X124397Y-258734D01*
X124102Y-258808D01*
X123954Y-258882D01*
X123141Y-259030D01*
X122106Y-259178D01*
X121071Y-259252D01*
X120036Y-259326D01*
X119075Y-259400D01*
X106510D01*
Y-244025D01*
X118632D01*
X120258Y-244173D01*
D02*
G37*
G36*
X121515Y-265608D02*
X122771Y-265756D01*
X123806Y-265904D01*
X124619Y-266052D01*
X125284Y-266200D01*
X125580Y-266274D01*
X125728Y-266347D01*
X126689Y-266717D01*
X127502Y-267161D01*
X128241Y-267678D01*
X128832Y-268195D01*
X129276Y-268639D01*
X129571Y-269008D01*
X129793Y-269304D01*
X129867Y-269378D01*
X130384Y-270191D01*
X130754Y-271004D01*
X131050Y-271817D01*
X131197Y-272556D01*
X131345Y-273221D01*
X131419Y-273813D01*
Y-274108D01*
Y-274256D01*
X131345Y-275143D01*
X131271Y-276030D01*
X131123Y-276769D01*
X130902Y-277361D01*
X130680Y-277878D01*
X130532Y-278322D01*
X130458Y-278543D01*
X130384Y-278617D01*
X129941Y-279282D01*
X129571Y-279874D01*
X129054Y-280317D01*
X128684Y-280761D01*
X128315Y-281056D01*
X128019Y-281278D01*
X127797Y-281426D01*
X127723Y-281500D01*
X126467Y-282091D01*
X125210Y-282535D01*
X124693Y-282682D01*
X124249Y-282756D01*
X123954Y-282830D01*
X123880D01*
X123289Y-282904D01*
X122623Y-282978D01*
X121071Y-283052D01*
X106510D01*
Y-265460D01*
X119962D01*
X121515Y-265608D01*
D02*
G37*
G36*
X23505Y-244099D02*
X24613Y-244173D01*
X25500Y-244247D01*
X26092Y-244395D01*
X26535Y-244469D01*
X26831Y-244543D01*
X26905D01*
X27866Y-244912D01*
X28679Y-245356D01*
X29418Y-245799D01*
X30083Y-246317D01*
X30526Y-246834D01*
X30896Y-247204D01*
X31118Y-247499D01*
X31192Y-247573D01*
X31709Y-248460D01*
X32153Y-249347D01*
X32448Y-250308D01*
X32596Y-251121D01*
X32744Y-251860D01*
X32818Y-252526D01*
Y-252895D01*
Y-252969D01*
Y-253043D01*
X32670Y-254595D01*
X32374Y-255926D01*
X31931Y-257108D01*
X31413Y-258069D01*
X30896Y-258808D01*
X30453Y-259400D01*
X30157Y-259695D01*
X30009Y-259843D01*
X29492Y-260286D01*
X28826Y-260656D01*
X27422Y-261247D01*
X25870Y-261691D01*
X24318Y-261987D01*
X22913Y-262134D01*
X22322Y-262208D01*
X21805D01*
X21287Y-262282D01*
X7539D01*
Y-244025D01*
X22174D01*
X23505Y-244099D01*
D02*
G37*
D20*
X-667500Y112500D02*
G03*
X-667500Y112500I-12500J0D01*
G01*
X692500Y-12500D02*
G03*
X692500Y-12500I-12500J0D01*
G01*
X-222500Y95000D02*
G03*
X-222500Y95000I-12500J0D01*
G01*
D21*
X-970000Y337500D02*
X-847500D01*
X-1252500Y-110000D02*
Y210000D01*
X-970000Y-237500D02*
X-847500D01*
Y-80000D01*
Y180000D02*
Y337500D01*
X847500Y-237500D02*
X970000D01*
X1252500Y-110000D02*
Y210000D01*
X847500Y337500D02*
X970000D01*
X847500Y180000D02*
Y337500D01*
Y-237500D02*
Y-80000D01*
X-35000Y-150000D02*
Y150000D01*
Y-150000D02*
X35000D01*
Y150000D01*
X-35000D02*
X35000D01*
D22*
X-600000Y-173825D02*
X-650784D01*
X-625392D01*
Y-300784D01*
X-650784Y-326176D01*
X-676175D01*
X-701567Y-300784D01*
X-549216Y-326176D02*
X-498433D01*
X-523824D01*
Y-173825D01*
X-549216Y-199217D01*
X524609Y-173825D02*
X473825D01*
X499217D01*
Y-300784D01*
X473825Y-326176D01*
X448433D01*
X423041Y-300784D01*
X676959Y-326176D02*
X575392D01*
X676959Y-224608D01*
Y-199217D01*
X651567Y-173825D01*
X600784D01*
X575392Y-199217D01*
X-350000Y350783D02*
X-375392Y376175D01*
X-426175D01*
X-451567Y350783D01*
Y249216D01*
X-426175Y223825D01*
X-375392D01*
X-350000Y249216D01*
X-299216Y223825D02*
X-248433D01*
X-273824D01*
Y376175D01*
X-299216Y350783D01*
X324608D02*
X299217Y376175D01*
X248433D01*
X223041Y350783D01*
Y249216D01*
X248433Y223825D01*
X299217D01*
X324608Y249216D01*
X476959Y223825D02*
X375392D01*
X476959Y325392D01*
Y350783D01*
X451567Y376175D01*
X400784D01*
X375392Y350783D01*
X-101567Y376175D02*
Y249216D01*
X-76175Y223825D01*
X-25392D01*
X0Y249216D01*
Y376175D01*
X50784Y223825D02*
X101567D01*
X76176D01*
Y376175D01*
X50784Y350783D01*
%TF.MD5,420504a130476255e97bab9b2900910f*%
M02*
