%TF.GenerationSoftware,Altium Limited,Altium Designer,25.8.1 (18)*%
G04 Layer_Physical_Order=2*
G04 Layer_Color=16711680*
%FSLAX45Y45*%
%MOMM*%
%TF.SameCoordinates,BF877837-746F-4D67-876E-14822A395A72*%
%TF.FilePolarity,Positive*%
%TF.FileFunction,Copper,L2,Bot,Signal*%
%TF.Part,Single*%
G01*
G75*
%TA.AperFunction,ViaPad*%
%ADD18C,0.30000*%
%ADD19C,0.50000*%
G36*
X1279169Y446157D02*
X1297368Y438619D01*
X1313746Y427675D01*
X1327675Y413746D01*
X1338619Y397368D01*
X1346157Y379169D01*
X1350000Y359849D01*
Y350000D01*
Y-250000D01*
Y-259850D01*
X1346157Y-279169D01*
X1338619Y-297368D01*
X1327675Y-313747D01*
X1313746Y-327675D01*
X1297368Y-338619D01*
X1279169Y-346157D01*
X1259849Y-350000D01*
X-1309946D01*
X-1328323Y-342388D01*
X-1342388Y-328323D01*
X-1350000Y-309946D01*
Y-300000D01*
Y400000D01*
Y409945D01*
X-1342388Y428322D01*
X-1328323Y442388D01*
X-1309946Y450000D01*
X1259849D01*
X1279169Y446157D01*
D02*
G37*
D18*
X-226573Y-96173D02*
D03*
D19*
X1000000Y100000D02*
D03*
X350000Y-250000D02*
D03*
X-350000D02*
D03*
X-985246Y-12500D02*
D03*
%TF.MD5,57548ac4144e470729f72965c843ae8c*%
M02*
